<svg xmlns="http://www.w3.org/2000/svg" xmlns:xlink="http://www.w3.org/1999/xlink" xmlns:lucid="lucid" width="836.85" height="283"><g transform="translate(-500 -60)" lucid:page-tab-id="vboCBN~skTry"><path d="M856.14 86a6 6 0 0 1 6-6h168a6 6 0 0 1 6 6v31a6 6 0 0 1-6 6h-168a6 6 0 0 1-6-6z" stroke="#3a414a" fill="#fff"/><use xlink:href="#a" transform="matrix(1,0,0,1,864.1417322834645,88) translate(9.96296296296299 17.944444444444443)"/><use xlink:href="#b" transform="matrix(1,0,0,1,864.1417322834645,88) translate(119.59259259259257 17.944444444444443)"/><path d="M580 186a6 6 0 0 1 6-6h120.28a6 6 0 0 1 6 6v31a6 6 0 0 1-6 6H586a6 6 0 0 1-6-6z" stroke="#3a414a" fill="#fff"/><use xlink:href="#c" transform="matrix(1,0,0,1,588,188) translate(4.8271604938271935 17.944444444444443)"/><path d="M727.72 186a6 6 0 0 1 6-6H854a6 6 0 0 1 6 6v31a6 6 0 0 1-6 6H733.72a6 6 0 0 1-6-6z" stroke="#3a414a" fill="#fff"/><use xlink:href="#d" transform="matrix(1,0,0,1,735.7165354330708,188) translate(10.444444444444471 17.944444444444443)"/><path d="M880 186a6 6 0 0 1 6-6h120.28a6 6 0 0 1 6 6v31a6 6 0 0 1-6 6H886a6 6 0 0 1-6-6z" stroke="#3a414a" fill="#fff"/><use xlink:href="#e" transform="matrix(1,0,0,1,888,188) translate(28.870370370370384 17.944444444444443)"/><path d="M1032.28 186a6 6 0 0 1 6-6h120.3a6 6 0 0 1 6 6v31a6 6 0 0 1-6 6h-120.3a6 6 0 0 1-6-6z" stroke="#3a414a" fill="#fff"/><use xlink:href="#f" transform="matrix(1,0,0,1,1040.283464566929,188) translate(12.604938271604958 17.944444444444443)"/><path d="M1184.57 186a6 6 0 0 1 6-6h120.28a6 6 0 0 1 6 6v31a6 6 0 0 1-6 6h-120.28a6 6 0 0 1-6-6z" stroke="#3a414a" fill="#fff"/><use xlink:href="#g" transform="matrix(1,0,0,1,1192.5669291338581,188) translate(31.030864197530875 17.944444444444443)"/><path d="M520 286a6 6 0 0 1 6-6h120.28a6 6 0 0 1 6 6v31a6 6 0 0 1-6 6H526a6 6 0 0 1-6-6z" stroke="#3a414a" fill="#fff"/><use xlink:href="#h" transform="matrix(1,0,0,1,528,288) translate(30.7530864197531 17.944444444444443)"/><path d="M680 286a6 6 0 0 1 6-6h120.28a6 6 0 0 1 6 6v31a6 6 0 0 1-6 6H686a6 6 0 0 1-6-6z" stroke="#3a414a" fill="#fff"/><use xlink:href="#i" transform="matrix(1,0,0,1,688,288) translate(6.061728395061756 17.944444444444443)"/><path d="M946.14 123.96v21.54a6 6 0 0 1-6 6h-288a6 6 0 0 0-6 6v5.65" stroke="#3a414a" fill="none"/><path d="M946.64 123.98h-1v-.52h1z" stroke="#3a414a" stroke-width=".05" fill="#3a414a"/><path d="M646.14 177.92l-4.63-14.27h9.28z" stroke="#3a414a" fill="#3a414a"/><path d="M946.14 123.96v21.54a6 6 0 0 1-6 6H799.86a6 6 0 0 0-6 6v5.65" stroke="#3a414a" fill="none"/><path d="M946.64 123.98h-1v-.52h1z" stroke="#3a414a" stroke-width=".05" fill="#3a414a"/><path d="M793.86 177.92l-4.64-14.27h9.27z" stroke="#3a414a" fill="#3a414a"/><path d="M946.14 123.96v21.54a6 6 0 0 0 6 6h140.3a6 6 0 0 1 6 6v5.65" stroke="#3a414a" fill="none"/><path d="M946.64 123.98h-1v-.52h1z" stroke="#3a414a" stroke-width=".05" fill="#3a414a"/><path d="M1098.43 177.92l-4.64-14.27h9.26z" stroke="#3a414a" fill="#3a414a"/><path d="M946.14 123.96v39.2" stroke="#3a414a" fill="none"/><path d="M946.64 123.98h-1v-.52h1z" stroke="#3a414a" stroke-width=".05" fill="#3a414a"/><path d="M946.14 177.92l-4.63-14.27h9.28z" stroke="#3a414a" fill="#3a414a"/><path d="M946.14 123.96v21.54a6 6 0 0 0 6 6h292.57a6 6 0 0 1 6 6v5.65" stroke="#3a414a" fill="none"/><path d="M946.64 123.98h-1v-.52h1z" stroke="#3a414a" stroke-width=".05" fill="#3a414a"/><path d="M1250.7 177.92l-4.63-14.27h9.27z" stroke="#3a414a" fill="#3a414a"/><path d="M646.14 223.96v21.54a6 6 0 0 1-6 6h-48a6 6 0 0 0-6 6v5.65" stroke="#3a414a" fill="none"/><path d="M646.64 223.98h-1v-.52h1z" stroke="#3a414a" stroke-width=".05" fill="#3a414a"/><path d="M586.14 277.92l-4.63-14.27h9.28z" stroke="#3a414a" fill="#3a414a"/><path d="M646.14 223.96v21.54a6 6 0 0 0 6 6h88a6 6 0 0 1 6 6v5.65" stroke="#3a414a" fill="none"/><path d="M646.64 223.98h-1v-.52h1z" stroke="#3a414a" stroke-width=".05" fill="#3a414a"/><path d="M746.14 277.92l-4.63-14.27h9.28z" stroke="#3a414a" fill="#3a414a"/><defs><path fill="#3a414a" d="M185-189c-5-48-123-54-124 2 14 75 158 14 163 119 3 78-121 87-175 55-17-10-28-26-33-46l33-7c5 56 141 63 141-1 0-78-155-14-162-118-5-82 145-84 179-34 5 7 8 16 11 25" id="j"/><path fill="#3a414a" d="M24-231v-30h32v30H24zM24 0v-190h32V0H24" id="k"/><path fill="#3a414a" d="M210-169c-67 3-38 105-44 169h-31v-121c0-29-5-50-35-48C34-165 62-65 56 0H25l-1-190h30c1 10-1 24 2 32 10-44 99-50 107 0 11-21 27-35 58-36 85-2 47 119 55 194h-31v-121c0-29-5-49-35-48" id="l"/><path fill="#3a414a" d="M84 4C-5 8 30-112 23-190h32v120c0 31 7 50 39 49 72-2 45-101 50-169h31l1 190h-30c-1-10 1-25-2-33-11 22-28 36-60 37" id="m"/><path fill="#3a414a" d="M24 0v-261h32V0H24" id="n"/><path fill="#3a414a" d="M141-36C126-15 110 5 73 4 37 3 15-17 15-53c-1-64 63-63 125-63 3-35-9-54-41-54-24 1-41 7-42 31l-33-3c5-37 33-52 76-52 45 0 72 20 72 64v82c-1 20 7 32 28 27v20c-31 9-61-2-59-35zM48-53c0 20 12 33 32 33 41-3 63-29 60-74-43 2-92-5-92 41" id="o"/><path fill="#3a414a" d="M59-47c-2 24 18 29 38 22v24C64 9 27 4 27-40v-127H5v-23h24l9-43h21v43h35v23H59v120" id="p"/><path fill="#3a414a" d="M100-194c62-1 85 37 85 99 1 63-27 99-86 99S16-35 15-95c0-66 28-99 85-99zM99-20c44 1 53-31 53-75 0-43-8-75-51-75s-53 32-53 75 10 74 51 75" id="q"/><path fill="#3a414a" d="M117-194c89-4 53 116 60 194h-32v-121c0-31-8-49-39-48C34-167 62-67 57 0H25l-1-190h30c1 10-1 24 2 32 11-22 29-35 61-36" id="r"/><g id="a"><use transform="matrix(0.06172839506172837,0,0,0.06172839506172837,0,0)" xlink:href="#j"/><use transform="matrix(0.06172839506172837,0,0,0.06172839506172837,14.81481481481481,0)" xlink:href="#k"/><use transform="matrix(0.06172839506172837,0,0,0.06172839506172837,19.69135802469135,0)" xlink:href="#l"/><use transform="matrix(0.06172839506172837,0,0,0.06172839506172837,38.14814814814814,0)" xlink:href="#m"/><use transform="matrix(0.06172839506172837,0,0,0.06172839506172837,50.49382716049381,0)" xlink:href="#n"/><use transform="matrix(0.06172839506172837,0,0,0.06172839506172837,55.37037037037035,0)" xlink:href="#o"/><use transform="matrix(0.06172839506172837,0,0,0.06172839506172837,67.71604938271602,0)" xlink:href="#p"/><use transform="matrix(0.06172839506172837,0,0,0.06172839506172837,73.88888888888886,0)" xlink:href="#k"/><use transform="matrix(0.06172839506172837,0,0,0.06172839506172837,78.7654320987654,0)" xlink:href="#q"/><use transform="matrix(0.06172839506172837,0,0,0.06172839506172837,91.11111111111107,0)" xlink:href="#r"/></g><path fill="#3a414a" d="M135-143c-3-34-86-38-87 0 15 53 115 12 119 90S17 21 10-45l28-5c4 36 97 45 98 0-10-56-113-15-118-90-4-57 82-63 122-42 12 7 21 19 24 35" id="s"/><g id="b"><use transform="matrix(0.06172839506172837,0,0,0.06172839506172837,0,0)" xlink:href="#s"/><use transform="matrix(0.06172839506172837,0,0,0.06172839506172837,11.111111111111107,0)" xlink:href="#k"/><use transform="matrix(0.06172839506172837,0,0,0.06172839506172837,15.987654320987648,0)" xlink:href="#l"/></g><path fill="#3a414a" d="M140-251c81 0 123 46 123 126C263-46 219 4 140 4 59 4 17-45 17-125s42-126 123-126zm0 227c63 0 89-41 89-101s-29-99-89-99c-61 0-89 39-89 99S79-25 140-24" id="t"/><path fill="#3a414a" d="M115-194c55 1 70 41 70 98S169 2 115 4C84 4 66-9 55-30l1 105H24l-1-265h31l2 30c10-21 28-34 59-34zm-8 174c40 0 45-34 45-75s-6-73-45-74c-42 0-51 32-51 76 0 43 10 73 51 73" id="u"/><path fill="#3a414a" d="M127-220V0H93v-220H8v-28h204v28h-85" id="v"/><path fill="#3a414a" d="M100-194c63 0 86 42 84 106H49c0 40 14 67 53 68 26 1 43-12 49-29l28 8c-11 28-37 45-77 45C44 4 14-33 15-96c1-61 26-98 85-98zm52 81c6-60-76-77-97-28-3 7-6 17-6 28h103" id="w"/><path fill="#3a414a" d="M141 0L90-78 38 0H4l68-98-65-92h35l48 74 47-74h35l-64 92 68 98h-35" id="x"/><g id="c"><use transform="matrix(0.06172839506172837,0,0,0.06172839506172837,0,0)" xlink:href="#t"/><use transform="matrix(0.06172839506172837,0,0,0.06172839506172837,17.283950617283942,0)" xlink:href="#m"/><use transform="matrix(0.06172839506172837,0,0,0.06172839506172837,29.629629629629616,0)" xlink:href="#p"/><use transform="matrix(0.06172839506172837,0,0,0.06172839506172837,35.802469135802454,0)" xlink:href="#u"/><use transform="matrix(0.06172839506172837,0,0,0.06172839506172837,48.148148148148124,0)" xlink:href="#m"/><use transform="matrix(0.06172839506172837,0,0,0.06172839506172837,60.493827160493794,0)" xlink:href="#p"/><use transform="matrix(0.06172839506172837,0,0,0.06172839506172837,66.66666666666663,0)" xlink:href="#v"/><use transform="matrix(0.06172839506172837,0,0,0.06172839506172837,77.71604938271601,0)" xlink:href="#w"/><use transform="matrix(0.06172839506172837,0,0,0.06172839506172837,90.06172839506168,0)" xlink:href="#x"/><use transform="matrix(0.06172839506172837,0,0,0.06172839506172837,101.17283950617278,0)" xlink:href="#p"/></g><path fill="#3a414a" d="M33 0v-38h34V0H33" id="y"/><path fill="#3a414a" d="M114-163C36-179 61-72 57 0H25l-1-190h30c1 12-1 29 2 39 6-27 23-49 58-41v29" id="z"/><g id="d"><use transform="matrix(0.06172839506172837,0,0,0.06172839506172837,0,0)" xlink:href="#y"/><use transform="matrix(0.06172839506172837,0,0,0.06172839506172837,6.172839506172837,0)" xlink:href="#k"/><use transform="matrix(0.06172839506172837,0,0,0.06172839506172837,11.049382716049378,0)" xlink:href="#p"/><use transform="matrix(0.06172839506172837,0,0,0.06172839506172837,17.222222222222214,0)" xlink:href="#w"/><use transform="matrix(0.06172839506172837,0,0,0.06172839506172837,29.567901234567888,0)" xlink:href="#z"/><use transform="matrix(0.06172839506172837,0,0,0.06172839506172837,36.91358024691356,0)" xlink:href="#o"/><use transform="matrix(0.06172839506172837,0,0,0.06172839506172837,49.25925925925924,0)" xlink:href="#p"/><use transform="matrix(0.06172839506172837,0,0,0.06172839506172837,55.43209876543207,0)" xlink:href="#k"/><use transform="matrix(0.06172839506172837,0,0,0.06172839506172837,60.30864197530862,0)" xlink:href="#q"/><use transform="matrix(0.06172839506172837,0,0,0.06172839506172837,72.65432098765429,0)" xlink:href="#r"/><use transform="matrix(0.06172839506172837,0,0,0.06172839506172837,84.99999999999996,0)" xlink:href="#s"/></g><g id="e"><use transform="matrix(0.06172839506172837,0,0,0.06172839506172837,0,0)" xlink:href="#y"/><use transform="matrix(0.06172839506172837,0,0,0.06172839506172837,6.172839506172837,0)" xlink:href="#s"/><use transform="matrix(0.06172839506172837,0,0,0.06172839506172837,17.283950617283942,0)" xlink:href="#p"/><use transform="matrix(0.06172839506172837,0,0,0.06172839506172837,23.456790123456777,0)" xlink:href="#w"/><use transform="matrix(0.06172839506172837,0,0,0.06172839506172837,35.802469135802454,0)" xlink:href="#u"/><use transform="matrix(0.06172839506172837,0,0,0.06172839506172837,48.148148148148124,0)" xlink:href="#s"/></g><path fill="#3a414a" d="M18-27v-27l151-64-151-65v-27l175 74v36" id="A"/><g id="f"><use transform="matrix(0.06172839506172837,0,0,0.06172839506172837,0,0)" xlink:href="#A"/><use transform="matrix(0.06172839506172837,0,0,0.06172839506172837,12.962962962962958,0)" xlink:href="#k"/><use transform="matrix(0.06172839506172837,0,0,0.06172839506172837,17.8395061728395,0)" xlink:href="#p"/><use transform="matrix(0.06172839506172837,0,0,0.06172839506172837,24.012345679012334,0)" xlink:href="#w"/><use transform="matrix(0.06172839506172837,0,0,0.06172839506172837,36.35802469135801,0)" xlink:href="#z"/><use transform="matrix(0.06172839506172837,0,0,0.06172839506172837,43.70370370370369,0)" xlink:href="#o"/><use transform="matrix(0.06172839506172837,0,0,0.06172839506172837,56.049382716049365,0)" xlink:href="#p"/><use transform="matrix(0.06172839506172837,0,0,0.06172839506172837,62.2222222222222,0)" xlink:href="#k"/><use transform="matrix(0.06172839506172837,0,0,0.06172839506172837,67.09876543209874,0)" xlink:href="#q"/><use transform="matrix(0.06172839506172837,0,0,0.06172839506172837,79.44444444444441,0)" xlink:href="#r"/></g><g id="g"><use transform="matrix(0.06172839506172837,0,0,0.06172839506172837,0,0)" xlink:href="#A"/><use transform="matrix(0.06172839506172837,0,0,0.06172839506172837,12.962962962962958,0)" xlink:href="#s"/><use transform="matrix(0.06172839506172837,0,0,0.06172839506172837,24.074074074074066,0)" xlink:href="#p"/><use transform="matrix(0.06172839506172837,0,0,0.06172839506172837,30.246913580246904,0)" xlink:href="#w"/><use transform="matrix(0.06172839506172837,0,0,0.06172839506172837,42.59259259259258,0)" xlink:href="#u"/></g><g id="h"><use transform="matrix(0.06172839506172837,0,0,0.06172839506172837,0,0)" xlink:href="#y"/><use transform="matrix(0.06172839506172837,0,0,0.06172839506172837,6.172839506172837,0)" xlink:href="#u"/><use transform="matrix(0.06172839506172837,0,0,0.06172839506172837,18.518518518518512,0)" xlink:href="#q"/><use transform="matrix(0.06172839506172837,0,0,0.06172839506172837,30.864197530864185,0)" xlink:href="#z"/><use transform="matrix(0.06172839506172837,0,0,0.06172839506172837,38.20987654320986,0)" xlink:href="#p"/><use transform="matrix(0.06172839506172837,0,0,0.06172839506172837,44.382716049382694,0)" xlink:href="#s"/></g><path fill="#3a414a" d="M234-2c-28 10-62 0-77-18C117 19 8 12 13-65c3-43 29-61 60-76-25-40-17-114 47-108 35 3 59 15 59 50 0 44-40 53-71 69 14 26 32 50 51 72 14-21 24-43 30-72l26 8c-9 33-21 57-38 82 13 13 33 22 57 15v23zM97-151c25-10 52-18 56-48-1-18-13-29-33-29-42 0-39 50-23 77zM42-66c-3 51 71 58 98 28-20-24-41-51-56-80-23 10-40 24-42 52" id="B"/><path fill="#3a414a" d="M177-190C167-65 218 103 67 71c-23-6-38-20-44-43l32-5c15 47 100 32 89-28v-30C133-14 115 1 83 1 29 1 15-40 15-95c0-56 16-97 71-98 29-1 48 16 59 35 1-10 0-23 2-32h30zM94-22c36 0 50-32 50-73 0-42-14-75-50-75-39 0-46 34-46 75s6 73 46 73" id="C"/><g id="i"><use transform="matrix(0.06172839506172837,0,0,0.06172839506172837,0,0)" xlink:href="#B"/><use transform="matrix(0.06172839506172837,0,0,0.06172839506172837,14.81481481481481,0)" xlink:href="#l"/><use transform="matrix(0.06172839506172837,0,0,0.06172839506172837,33.271604938271594,0)" xlink:href="#w"/><use transform="matrix(0.06172839506172837,0,0,0.06172839506172837,45.617283950617264,0)" xlink:href="#s"/><use transform="matrix(0.06172839506172837,0,0,0.06172839506172837,56.72839506172837,0)" xlink:href="#s"/><use transform="matrix(0.06172839506172837,0,0,0.06172839506172837,67.83950617283948,0)" xlink:href="#o"/><use transform="matrix(0.06172839506172837,0,0,0.06172839506172837,80.18518518518515,0)" xlink:href="#C"/><use transform="matrix(0.06172839506172837,0,0,0.06172839506172837,92.53086419753082,0)" xlink:href="#w"/></g></defs></g></svg>